<svg fill="#000000" xmlns="http://www.w3.org/2000/svg"  viewBox="0 0 512 512" width="24px" height="24px"><path d="M 91 123.08984 A 19.929 19.929 0 0 0 77.363281 128.4707 L 242.83594 239.87695 A 19.956 19.956 0 0 0 264.99023 240.04492 L 435.1582 128.97852 A 19.936 19.936 0 0 0 421 123.08984 L 91 123.08984 z M 71 148.30078 L 71 368.91016 A 20.023 20.023 0 0 0 91 388.91016 L 421 388.91016 A 20.023 20.023 0 0 0 441 368.91016 L 441 149.04883 L 275.93359 256.78516 A 39.9 39.9 0 0 1 231.6543 256.45703 L 71 148.30078 z"/></svg>