<svg xmlns="http://www.w3.org/2000/svg"  viewBox="0 0 512 512" width="64px" height="64px"><g data-name="filled outline"><rect width="320" height="464" x="96" y="24" fill="#cbcbcb" rx="16" ry="16"/><rect width="320" height="368" x="96" y="56" fill="#3bd6d0"/><rect width="320" height="8" x="96" y="416" fill="#37c9c3"/><path fill="#b9b9b9" d="M288,464H232a8,8,0,0,1,0-16h56a8,8,0,0,1,0,16Z"/><rect width="112" height="112" x="120" y="96" fill="#34bdb7" rx="10.889" ry="10.889"/><path fill="#34bdb7" d="M128,250.89v90.22A10.9,10.9,0,0,1,117.11,352H96V240h21.11A10.9,10.9,0,0,1,128,250.89Z"/><rect width="112" height="112" x="264" y="96" fill="#34bdb7" rx="10.889" ry="10.889"/><path fill="#34bdb7" d="M272.572,322.971l-16-40A8,8,0,0,1,257.6,275.2l24-32,12.8,9.6-21.3,28.4,14.33,35.826Z"/><path fill="#34bdb7" d="M359.428,322.971l-14.856-5.942L358.9,281.2l-21.3-28.4,12.8-9.6,24,32a8,8,0,0,1,1.028,7.771Z"/><rect width="60.926" height="16" x="285.537" y="276" fill="#34bdb7" transform="rotate(-66.801 316 284)"/><path fill="#f55648" d="M197.657,282.343l-24-24-11.314,11.314L172.687,280H128v16h44.687l-10.344,10.343,11.314,11.314,24-24A8,8,0,0,0,197.657,282.343Z"/><path fill="#37c9c3" d="M200,320a31.92,31.92,0,0,1-10.666-1.823l5.332-15.086a16,16,0,1,0,0-30.182l-5.332-15.086A32,32,0,1,1,200,320Z"/><rect width="16" height="16" x="240" y="344" fill="#34bdb7"/><rect width="32" height="16" x="272" y="344" fill="#34bdb7"/><rect width="48" height="16" x="240" y="376" fill="#34bdb7"/><rect width="37.436" height="16" x="304" y="376" fill="#34bdb7"/><rect width="24" height="16" x="320" y="344" fill="#34bdb7"/><rect width="112" height="112" x="24" y="232" fill="#c7463b" rx="10.889" ry="10.889"/><rect width="48" height="48" x="56" y="264" fill="#f55648"/><rect width="8" height="360" x="408" y="56" fill="#37c9c3"/><path fill="#da922a" d="M478.74,408l2.64-4L496,381.86l-2.46-4.27L480,354.14l-31.27,1.88L434.72,328h-32l-14.01,28.02-31.27-1.88L343.9,377.59l-2.46,4.27L356.06,404l2.64,4-14.8,22.41-2.46,3.73,16,27.72,31.27-1.88L402.72,488h32l14.01-28.02L480,461.86l16-27.72-2.46-3.73Zm-85.02-8a25,25,0,1,1,49.68,4,25,25,0,1,1-49.36,0A25.107,25.107,0,0,1,393.72,400Z"/><path fill="#f3af3e" d="M481.38,404l-2.64-4,14.8-22.41L480,354.14l-31.27,1.88L434.72,328h-32l-14.01,28.02-31.27-1.88L343.9,377.59,358.7,400l-2.64,4-14.62,22.14,2.46,4.27,13.54,23.45,31.27-1.88L402.72,480h32l14.01-28.02L480,453.86l13.54-23.45,2.46-4.27Zm-37.98,0a25.012,25.012,0,1,1,.32-4A24.994,24.994,0,0,1,443.4,404Z"/><rect width="120" height="16" x="376" y="104" fill="#fece2f"/><rect width="120" height="16" x="376" y="160" fill="#fece2f"/><rect width="48" height="16" x="448" y="160" fill="#da922a"/><rect width="72" height="16" x="424" y="104" fill="#da922a"/><circle cx="432" cy="112" r="16" fill="#fda332"/><circle cx="456" cy="168" r="16" fill="#fda332"/><rect width="112" height="112" x="272" y="88" fill="#e08122" rx="10.889" ry="10.889"/><circle cx="328" cy="144" r="24" fill="#fda332"/><rect width="112" height="112" x="128" y="88" fill="#428dc5" rx="10.889" ry="10.889"/><polygon fill="#6cbae5" points="168 168 208 144 168 120 168 168"/><path d="M288,448H232a8,8,0,0,0,0,16h56a8,8,0,0,0,0-16Z"/><path d="M138.889,208h90.222A18.911,18.911,0,0,0,248,189.111V98.889A18.911,18.911,0,0,0,229.111,80H138.889A18.911,18.911,0,0,0,120,98.889v90.222A18.911,18.911,0,0,0,138.889,208ZM136,98.889A2.892,2.892,0,0,1,138.889,96h90.222A2.892,2.892,0,0,1,232,98.889v90.222A2.892,2.892,0,0,1,229.111,192H138.889A2.892,2.892,0,0,1,136,189.111Z"/><path d="M272.572,322.971l14.856-5.942L273.1,281.2l21.3-28.4-12.8-9.6-24,32a8,8,0,0,0-1.028,7.771Z"/><path d="M344.572,317.029l14.856,5.942,16-40A8,8,0,0,0,374.4,275.2l-24-32-12.8,9.6,21.3,28.4Z"/><rect width="60.926" height="16" x="285.537" y="276" transform="rotate(-66.801 316 284)"/><path d="M164.059,174.961a8,8,0,0,0,8.057-.1l40-24a8,8,0,0,0,0-13.72l-40-24A8,8,0,0,0,160,120v48A8,8,0,0,0,164.059,174.961ZM176,134.129,192.451,144,176,153.871Z"/><path d="M328,112a32,32,0,1,0,32,32A32.036,32.036,0,0,0,328,112Zm0,48a16,16,0,1,1,16-16A16.019,16.019,0,0,1,328,160Z"/><path d="M200,256a31.92,31.92,0,0,0-10.666,1.823l5.332,15.086a16,16,0,1,1,0,30.182l-5.332,15.086A32,32,0,1,0,200,256Z"/><path d="M104,256H56a8,8,0,0,0-8,8v48a8,8,0,0,0,8,8h48a8,8,0,0,0,8-8V264A8,8,0,0,0,104,256Zm-8,48H64V272H96Z"/><path d="M502.928,377.856l-16-27.712a8,8,0,0,0-7.407-3.986l-26,1.56-11.648-23.3A8,8,0,0,0,434.718,320H424V176h9.376a24,24,0,0,0,45.248,0H496V160H478.624a24,24,0,0,0-45.248,0H424V134.624A23.985,23.985,0,0,0,454.624,120H496V104H454.624A23.985,23.985,0,0,0,424,89.376V40a24.027,24.027,0,0,0-24-24H112A24.027,24.027,0,0,0,88,40V224H34.889A18.911,18.911,0,0,0,16,242.889v90.222A18.911,18.911,0,0,0,34.889,352H88V472a24.027,24.027,0,0,0,24,24H434.718a8,8,0,0,0,7.155-4.422l11.648-23.3,26,1.56a8,8,0,0,0,7.407-3.986l16-27.712a8,8,0,0,0-.252-8.408L488.325,408l14.351-21.736A8,8,0,0,0,502.928,377.856ZM456,160a8,8,0,1,1-8,8A8.009,8.009,0,0,1,456,160Zm-24-56a8,8,0,1,1-8,8A8.009,8.009,0,0,1,432,104ZM104,40a8.009,8.009,0,0,1,8-8H400a8.009,8.009,0,0,1,8,8v8H104Zm0,24H408v40H392V98.889A18.911,18.911,0,0,0,373.111,80H282.889A18.911,18.911,0,0,0,264,98.889v90.222A18.911,18.911,0,0,0,282.889,208h90.222A18.911,18.911,0,0,0,392,189.111V176h16V320h-5.282a8,8,0,0,0-7.156,4.422l-11.648,23.3-26-1.56a8.017,8.017,0,0,0-7.408,3.986L335.58,376H304v16h34.547l10.564,16-5.282,8H104V352h21.111A18.911,18.911,0,0,0,144,333.111V296h28.687l-10.344,10.343,11.314,11.314,24-24a8,8,0,0,0,0-11.314l-24-24-11.314,11.314L172.687,280H144V242.889A18.911,18.911,0,0,0,125.111,224H104Zm304,56v40H392V120ZM376,98.889v90.222A2.892,2.892,0,0,1,373.111,192H282.889A2.892,2.892,0,0,1,280,189.111V98.889A2.892,2.892,0,0,1,282.889,96h90.222A2.892,2.892,0,0,1,376,98.889ZM34.889,336A2.892,2.892,0,0,1,32,333.111V242.889A2.892,2.892,0,0,1,34.889,240h90.222A2.892,2.892,0,0,1,128,242.889v90.222A2.892,2.892,0,0,1,125.111,336ZM112,480a8.009,8.009,0,0,1-8-8V432H333.742a7.989,7.989,0,0,0,.766,6.144l16,27.712a8.005,8.005,0,0,0,7.408,3.986l26-1.56L389.773,480Zm360.062-67.592L486.6,434.425l-11.056,19.15-26.336-1.581a8,8,0,0,0-7.635,4.408l-11.8,23.6H407.662l-11.8-23.6a8.018,8.018,0,0,0-7.635-4.408l-26.336,1.581-11.056-19.15,14.538-22.017a8,8,0,0,0,0-8.816l-14.538-22.017,11.056-19.15,26.336,1.581a8.019,8.019,0,0,0,7.635-4.408l11.8-23.6h22.111l11.8,23.6a8.009,8.009,0,0,0,7.635,4.408l26.336-1.581,11.056,19.15-14.538,22.017A8,8,0,0,0,472.062,412.408Z"/><path d="M418.718,375a33,33,0,1,0,33,33A33.037,33.037,0,0,0,418.718,375ZM408,416h-4.274A16.958,16.958,0,0,1,408,394.82Zm16,8.149v-32.3a16.987,16.987,0,0,1,0,32.3Z"/><rect width="16" height="16" x="240" y="344"/><rect width="32" height="16" x="272" y="344"/><rect width="48" height="16" x="240" y="376"/><rect width="24" height="16" x="320" y="344"/></g></svg>