<svg xmlns="http://www.w3.org/2000/svg"  viewBox="0 0 512 512" width="64px" height="64px"><g data-name="Group 2"><polygon fill="#00efd1" points="474 427.03 474 484.32 420.05 484.32 420.05 455.68 420.05 427.03 447.03 427.03 474 427.03"/><polygon fill="#00efd1" points="474 27.68 474 84.97 447.03 84.97 420.05 84.97 420.05 56.32 420.05 27.68 474 27.68"/><path fill="#00efd1" d="M256,220.08a22.125,22.125,0,1,0,22.12,22.13A22.124,22.124,0,0,0,256,220.08Zm0-132.1,93.23,176.14L322.49,368.2H191.57l-28.8-104.08Z"/><polygon fill="#fedb41" points="322.49 368.2 308.15 424.02 207.01 424.02 191.57 368.2 322.49 368.2"/><path fill="#00acea" d="M256,220.08a22.125,22.125,0,1,1-22.12,22.13A22.124,22.124,0,0,1,256,220.08Z"/><polygon fill="#00efd1" points="91.95 455.68 91.95 484.32 38 484.32 38 427.03 64.97 427.03 91.95 427.03 91.95 455.68"/><polygon fill="#00efd1" points="91.95 56.32 91.95 84.97 64.97 84.97 38 84.97 38 27.68 91.95 27.68 91.95 56.32"/><path fill="#083863" d="M38,492H91.95a7.776,7.776,0,0,0,8.05-7.68V464H412v20.32a7.776,7.776,0,0,0,8.05,7.68H474a7.733,7.733,0,0,0,8-7.68V427.03a8.025,8.025,0,0,0-8-8.03H455V93h19a8.025,8.025,0,0,0,8-8.03V27.68A7.733,7.733,0,0,0,474,20H420.05A7.776,7.776,0,0,0,412,27.68V48H100V27.68A7.776,7.776,0,0,0,91.95,20H38a7.733,7.733,0,0,0-8,7.68V84.97A8.025,8.025,0,0,0,38,93H57V419H38a8.025,8.025,0,0,0-8,8.03v57.29A7.733,7.733,0,0,0,38,492Zm428-16H428V435h38ZM428,36h38V77H428ZM46,36H84V77H46ZM73,93H91.95A8.068,8.068,0,0,0,100,84.97V64H412V84.97A8.068,8.068,0,0,0,420.05,93H439V419H420.05a8.068,8.068,0,0,0-8.05,8.03V448H100V427.03A8.068,8.068,0,0,0,91.95,419H73ZM46,435H84v41H46Z"/><path fill="#083863" d="M181.052,360H172.14a8,8,0,0,0,0,16h13.339l13.82,50.043A8.082,8.082,0,0,0,207.01,432H308.15a8.081,8.081,0,0,0,7.748-6.1L328.7,376H339.86a8,8,0,0,0,0-16h-7.054l24.173-93.989a7.876,7.876,0,0,0-.678-5.684L263.071,84.213a8,8,0,0,0-14.142.019L155.7,260.374a7.748,7.748,0,0,0-.639,5.778Zm120.893,56H213.1L202.08,376h110.1ZM256,228.08a14.125,14.125,0,1,1-14.12,14.13A14.141,14.141,0,0,1,256,228.08ZM248,120.2v92.971a30.12,30.12,0,1,0,16,0V120.2l76.711,144.832L316.286,360H197.653l-26.324-95.048Z"/></g></svg>