<svg xmlns="http://www.w3.org/2000/svg"  viewBox="0 0 64 64" width="128px" height="128px"><g data-name="14-web design"><rect width="62" height="44" x="1" y="1" fill="#f1f2f2"/><rect width="10" height="10" x="5" y="30" fill="#b465ff"/><rect width="24" height="10" x="35" y="16" fill="#ec6f1d"/><path fill="#ffd241" d="M59,22c-4.00092,0-4.00092-2-8.00183-2s-4.00092,2-8.00183,2C38.99817,22,38.99817,20,35,20v6H59Z"/><rect width="62" height="10" x="1" y="1" fill="#ef4136"/><rect width="36" height="10" x="5" y="53" fill="#6ee1ef"/><polygon fill="#ef4136" points="61 55.343 55.343 61 39.08 44.737 36.958 36.958 44.737 39.08 61 55.343"/><polygon fill="#be3c36" points="44.737 39.08 36.958 36.958 58.172 58.172 61 55.343 44.737 39.08"/><polygon fill="#efb175" points="45 39 45 42 42 42 42 45 39 45 37 37 45 39"/><polygon fill="#808285" points="38 41 37 37 41 38 38 41"/><rect width="8" height="4" x="52.757" y="54.757" fill="#ffd241" transform="rotate(-45 56.757 56.757)"/><path fill="#f1f2f2" d="M55.58579,57.58579h8a0,0,0,0,1,0,0v2a2,2,0,0,1-2,2h-4a2,2,0,0,1-2-2v-2A0,0,0,0,1,55.58579,57.58579Z" transform="rotate(-45 59.586 59.586)"/><circle cx="7" cy="6" r="2" fill="#ffd241"/><circle cx="14" cy="6" r="2" fill="#ffd241"/><circle cx="21" cy="6" r="2" fill="#ffd241"/><rect width="24" height="10" x="5" y="16" fill="#b465ff"/><polygon fill="#ec8cbd" points="29 20 24.995 22 20.99 20 16.992 22 12.995 20 8.998 22 5 20 5 26 29 26 29 20"/><path d="M61.70752,54.63574l-.00147-.001L45.44336,38.37305a1.0005,1.0005,0,0,0-.44385-.25782l-7.77783-2.12207a1.00017,1.00017,0,0,0-1.228,1.22754l2.1211,7.77832a1.002,1.002,0,0,0,.25781.44434L51.80664,58.87744l.001.00147L54.63623,61.707l1.41406,1.41406a3.00421,3.00421,0,0,0,4.24268,0L63.12109,60.293a2.99949,2.99949,0,0,0,.00049-4.24219ZM41.75775,46H42a.99974.99974,0,0,0,1-1v-.586L53.92932,55.343l-1.41443,1.41455ZM44,39.91547V41H42.31238A.99088.99088,0,0,0,41,42.31238V44H39.91547l-.62732-2.30029L41.7,39.28821ZM55.34332,53.92883,44.41412,43H45a.99974.99974,0,0,0,1-1v-.24231L56.75751,52.51453Zm-.00006,5.65711L53.929,58.17163l4.24243-4.24292,1.41455,1.41406L57.4646,57.46436ZM39.47784,38.68219l-.79571.79553-.29834-1.09393ZM61.707,58.87891,58.87891,61.707a1.00021,1.00021,0,0,1-1.41455,0l-.707-.707,2.12134-2.12158L61,56.7569l.70752.70892a.99905.99905,0,0,1-.00049,1.41309Z"/><path d="M63,0H1A1,1,0,0,0,0,1V45a.99974.99974,0,0,0,1,1H36a1,1,0,0,0,0-2H2V12H62V44H56a1,1,0,0,0,0,2h7a.99974.99974,0,0,0,1-1V1A1,1,0,0,0,63,0ZM2,10V2H62v8Z"/><path d="M7,3a3,3,0,1,0,3,3A3.00328,3.00328,0,0,0,7,3ZM7,7A1,1,0,1,1,8,6,1.0013,1.0013,0,0,1,7,7Z"/><path d="M14,3a3,3,0,1,0,3,3A3.00328,3.00328,0,0,0,14,3Zm0,4a1,1,0,1,1,1-1A1.0013,1.0013,0,0,1,14,7Z"/><path d="M21,3a3,3,0,1,0,3,3A3.00328,3.00328,0,0,0,21,3Zm0,4a1,1,0,1,1,1-1A1.0013,1.0013,0,0,1,21,7Z"/><path d="M35,31H47a1,1,0,0,0,0-2H35a1,1,0,0,0,0,2Z"/><path d="M59,29H57a1,1,0,0,0,0,2h2a1,1,0,0,0,0-2Z"/><path d="M53,31a1,1,0,0,0,0-2H51a1,1,0,0,0,0,2Z"/><path d="M46,34a.99974.99974,0,0,0,1,1H59a1,1,0,0,0,0-2H47A.99974.99974,0,0,0,46,34Z"/><path d="M35,35h2a1,1,0,0,0,0-2H35a1,1,0,0,0,0,2Z"/><path d="M41,33a1,1,0,0,0,0,2h2a1,1,0,0,0,0-2Z"/><path d="M23,30H19a1,1,0,0,0,0,2h4a1,1,0,0,0,0-2Z"/><path d="M29,30H27a1,1,0,0,0,0,2h2a1,1,0,0,0,0-2Z"/><path d="M29,34H25a1,1,0,0,0,0,2h4a1,1,0,0,0,0-2Z"/><path d="M19,36h2a1,1,0,0,0,0-2H19a1,1,0,0,0,0,2Z"/><path d="M19,40h4a1,1,0,0,0,0-2H19a1,1,0,0,0,0,2Z"/><path d="M29,38H27a1,1,0,0,0,0,2h2a1,1,0,0,0,0-2Z"/><path d="M30,16a1,1,0,0,0-1-1H5a1,1,0,0,0-1,1V26a1,1,0,0,0,1,1H29a1,1,0,0,0,1-1Zm-2,1v2.38171l-3.00488,1.50061L21.437,19.10547a1.00006,1.00006,0,0,0-.894,0l-3.55078,1.77637-3.5503-1.77637a.999.999,0,0,0-.895.00049L8.998,20.88184,6,19.382V17ZM6,25V21.61853l2.55078,1.276a.999.999,0,0,0,.895-.00049l3.54883-1.77588,3.55029,1.77637a1.00107,1.00107,0,0,0,.89453,0l3.55127-1.77637,3.55762,1.77637a.999.999,0,0,0,.89355,0L28,21.61707V25Z"/><path d="M60,16a1,1,0,0,0-1-1H35a1,1,0,0,0-1,1V26a1,1,0,0,0,1,1H59a1,1,0,0,0,1-1Zm-2,1v3.94391a6.885,6.885,0,0,1-2.55371-.83844,9.50227,9.50227,0,0,0-8.89649,0,7.50038,7.50038,0,0,1-7.10449,0A8.746,8.746,0,0,0,36,19.04822V17ZM36,25V21.05615a6.87874,6.87874,0,0,1,2.55078.83838,9.49637,9.49637,0,0,0,8.89356,0,7.5062,7.5062,0,0,1,7.10742,0A8.76025,8.76025,0,0,0,58,22.95178V25Z"/><rect width="2" height="2" x="54" y="5"/><rect width="2" height="2" x="58" y="5"/><path d="M5,29a1,1,0,0,0-1,1V40a.99974.99974,0,0,0,1,1H15a.99974.99974,0,0,0,1-1V30a1,1,0,0,0-1-1Zm9,10H6V31h8Z"/><rect width="2" height="2" x="7" y="32"/><rect width="2" height="2" x="7" y="36"/><rect width="2" height="2" x="11" y="32"/><rect width="2" height="2" x="11" y="36"/><path d="M41,52H5a.99974.99974,0,0,0-1,1V63a.99974.99974,0,0,0,1,1H41a.99974.99974,0,0,0,1-1V53A.99974.99974,0,0,0,41,52ZM40,62H6V54h4v5h2V54h2v3h2V54h2v5h2V54h2v3h2V54h2v5h2V54h2v3h2V54h2v5h2V54h4Z"/></g></svg>